{"title":"Tough to Kill (1979)","uid":8210648,"size":1403137664,"categoryP":"video","categoryS":"movies","magnet":"?xt=urn:btih:50f82b2af20d6f294bfe0814098a63aeb60de705&amp;dn=Tough+to+Kill+%281979%29&amp;tr=udp%3A%2F%2Ftracker.openbittorrent.com%3A80&amp;tr=udp%3A%2F%2Fopen.demonii.com%3A1337&amp;tr=udp%3A%2F%2Ftracker.coppersurfer.tk%3A6969&amp;tr=udp%3A%2F%2Fexodus.desync.com%3A6969","seeders":1,"leechers":0,"uploader":"RadioResearch","files":3,"time":1362231617,"description":"*******************************************************************************\n                             Touch To Kill (1979)\n*******************************************************************************\n\n-------------------------------------------------------------------------------\n                              General Information\n-------------------------------------------------------------------------------\nType.................: Movie\n\n\n\nVideo Format.........: AVI\nVideo Bitrate........: 2198\nResolution...........: 720 x 540\nColor................: 8 bit\nSource...............: DVD 4x3\nOriginal Format......: NTSC\nGenre................: War\nIMDb Rating..........: 5.3\nMovie Information....: http://www.imdb.com/title/tt0169826\n\n-------------------------------------------------------------------------------\n                               Post Information\n-------------------------------------------------------------------------------\nPosted by............: RadioResearch\nPosted on............: 3/2/2013\n\n-------------------------------------------------------------------------------\n                                 Release Notes\n-------------------------------------------------------------------------------\nSEEDBOX SUPPORTED!!\n\nOriginal Title: Dure a Morire\n\nDeep in the African Bush there is a mercenary with a contract for 1 million \ndollars on his head.... just his head! The rest of him will be vulture meat.\n\nA hit man infiltrates an attack squad to stalk the butchering renegade \nmercenary. But with all the cash up for grabs, everybody on the squad wants a \ncut of the loot.\n\nWar-hardened killers will double cross each other in the devious race to hack-\noff the prize! \n\nOh yeah!  More Macaroni Combat with a plot inside a plot of mercenaries in \nAfrica.  This one has its moments, but is obviously made from old 16mm or 35mm \nprints.  I have never seen this anywhere, so I actually bought the DVD and \nripped it. :-)\n\nEnjoy!\n\nRadioResearch\n\nGeneral\nComplete name                            : G:Tough to Kill \n(1979)TOUGH_TO_KILL_Title1.avi\nFormat                                   : AVI\nFormat/Info                              : Audio Video Interleave\nFormat profile                           : OpenDML\nFile size                                : 1.31 GiB\nDuration                                 : 1h 25mn\nOverall bit rate                         : 2 198 Kbps\nMovie name                               : TOUGH_TO_KILL\nDirector                                 : Joe_D_Amato\nGenre                                    : Action\nWriting application                      : MEncoder 5.0\nWriting library                          : [= DigiArty videodll! =]\n\nVideo\nID                                       : 0\nFormat                                   : MPEG-4 Visual\nFormat profile                           : Simple@L1\nFormat settings, BVOP                    : No\nFormat settings, QPel                    : No\nFormat settings, GMC                     : No warppoints\nFormat settings, Matrix                  : Default (H.263)\nCodec ID                                 : DX50\nCodec ID/Hint                            : DivX 5\nDuration                                 : 1h 25mn\nBit rate                                 : 1 999 Kbps\nWidth                                    : 720 pixels\nHeight                                   : 540 pixels\nDisplay aspect ratio                     : 4:3\nFrame rate                               : 29.970 fps\nColor space                              : YUV\nChroma subsampling                       : 4:2:0\nBit depth                                : 8 bits\nScan type                                : Progressive\nCompression mode                         : Lossy\nBits/(Pixel*Frame)                       : 0.172\nStream size                              : 1.19 GiB (91%)\nWriting library                          : Lavc54.71.100\n\nAudio\nID                                       : 1\nFormat                                   : AC-3\nFormat/Info                              : Audio Coding 3\nMode extension                           : CM (complete main)\nFormat settings, Endianness              : Big\nCodec ID                                 : 2000\nDuration                                 : 1h 25mn\nBit rate mode                            : Constant\nBit rate                                 : 192 Kbps\nChannel(s)                               : 2 channels\nChannel positions                        : Front: L R\nSampling rate                            : 48.0 KHz\nBit depth                                : 16 bits\nCompression mode                         : Lossy\nStream size                              : 117 MiB (9%)\nAlignment                                : Split accross interleaves\nInterleave, duration                     : 500 ms (14.98 video frames)\nInterleave, preload duration             : 500 ms\n\n\n\n\n-------------------------------------------------------------------------------\nGenerated with Cool NFO Creator - http://fly.to/coolbeans\n-------------------------------------------------------------------------------\n","torrent":{"xt":"urn:btih:50f82b2af20d6f294bfe0814098a63aeb60de705","amp;dn":"Tough+to+Kill+%281979%29","amp;tr":["udp%3A%2F%2Ftracker.openbittorrent.com%3A80","udp%3A%2F%2Fopen.demonii.com%3A1337","udp%3A%2F%2Ftracker.coppersurfer.tk%3A6969","udp%3A%2F%2Fexodus.desync.com%3A6969"],"infoHash":"50f82b2af20d6f294bfe0814098a63aeb60de705","infoHashBuffer":{"type":"Buffer","data":[80,248,43,42,242,13,111,41,75,254,8,20,9,138,99,174,182,13,231,5]},"announce":[],"urlList":[]}}